<mxfile host="65bd71144e">
    <diagram id="461vk-kL1tIBMW2b6Cj7" name="Page-1">
        <mxGraphModel dx="569" dy="427" grid="1" gridSize="10" guides="1" tooltips="1" connect="1" arrows="1" fold="1" page="1" pageScale="1" pageWidth="850" pageHeight="1100" math="0" shadow="0">
            <root>
                <mxCell id="0"/>
                <mxCell id="1" parent="0"/>
                <mxCell id="2" value="Produtos" style="shape=table;startSize=30;container=1;collapsible=0;childLayout=tableLayout;fillColor=#dae8fc;strokeColor=#6c8ebf;sketch=1;curveFitting=1;jiggle=2;" vertex="1" parent="1">
                    <mxGeometry x="230" y="70" width="240" height="290" as="geometry"/>
                </mxCell>
                <mxCell id="3" value="" style="shape=tableRow;horizontal=0;startSize=0;swimlaneHead=0;swimlaneBody=0;strokeColor=inherit;top=0;left=0;bottom=0;right=0;collapsible=0;dropTarget=0;fillColor=none;points=[[0,0.5],[1,0.5]];portConstraint=eastwest;sketch=1;curveFitting=1;jiggle=2;" vertex="1" parent="2">
                    <mxGeometry y="30" width="240" height="44" as="geometry"/>
                </mxCell>
                <mxCell id="4" value="Id" style="shape=partialRectangle;html=1;whiteSpace=wrap;connectable=0;strokeColor=#6c8ebf;overflow=hidden;fillColor=#dae8fc;top=0;left=0;bottom=0;right=0;pointerEvents=1;sketch=1;curveFitting=1;jiggle=2;" vertex="1" parent="3">
                    <mxGeometry width="120" height="44" as="geometry">
                        <mxRectangle width="120" height="44" as="alternateBounds"/>
                    </mxGeometry>
                </mxCell>
                <mxCell id="5" value="&lt;div style=&quot;color: rgb(36, 41, 46); background-color: rgb(255, 255, 255); font-family: Consolas, &amp;quot;Courier New&amp;quot;, monospace; font-size: 14px; line-height: 19px; white-space: pre;&quot;&gt;&lt;span style=&quot;color: #d73a49;&quot;&gt;SERIAL&lt;/span&gt;&lt;span style=&quot;color: #000000;&quot;&gt; PK&lt;/span&gt;&lt;/div&gt;" style="shape=partialRectangle;html=1;whiteSpace=wrap;connectable=0;strokeColor=#6c8ebf;overflow=hidden;fillColor=#dae8fc;top=0;left=0;bottom=0;right=0;pointerEvents=1;sketch=1;curveFitting=1;jiggle=2;" vertex="1" parent="3">
                    <mxGeometry x="120" width="120" height="44" as="geometry">
                        <mxRectangle width="120" height="44" as="alternateBounds"/>
                    </mxGeometry>
                </mxCell>
                <mxCell id="6" value="" style="shape=tableRow;horizontal=0;startSize=0;swimlaneHead=0;swimlaneBody=0;strokeColor=inherit;top=0;left=0;bottom=0;right=0;collapsible=0;dropTarget=0;fillColor=none;points=[[0,0.5],[1,0.5]];portConstraint=eastwest;sketch=1;curveFitting=1;jiggle=2;" vertex="1" parent="2">
                    <mxGeometry y="74" width="240" height="42" as="geometry"/>
                </mxCell>
                <mxCell id="7" value="nome" style="shape=partialRectangle;html=1;whiteSpace=wrap;connectable=0;strokeColor=#6c8ebf;overflow=hidden;fillColor=#dae8fc;top=0;left=0;bottom=0;right=0;pointerEvents=1;sketch=1;curveFitting=1;jiggle=2;" vertex="1" parent="6">
                    <mxGeometry width="120" height="42" as="geometry">
                        <mxRectangle width="120" height="42" as="alternateBounds"/>
                    </mxGeometry>
                </mxCell>
                <mxCell id="8" value="&lt;div style=&quot;color: rgb(36, 41, 46); background-color: rgb(255, 255, 255); font-family: Consolas, &amp;quot;Courier New&amp;quot;, monospace; font-size: 14px; line-height: 19px; white-space: pre;&quot;&gt;&lt;span style=&quot;color: #d73a49;&quot;&gt;VARCHAR&lt;/span&gt;&lt;span style=&quot;color: #000000;&quot;&gt; (&lt;/span&gt;&lt;span style=&quot;color: #005cc5;&quot;&gt;100&lt;/span&gt;&lt;span style=&quot;color: #000000;&quot;&gt;)&lt;/span&gt;&lt;/div&gt;" style="shape=partialRectangle;html=1;whiteSpace=wrap;connectable=0;strokeColor=#6c8ebf;overflow=hidden;fillColor=#dae8fc;top=0;left=0;bottom=0;right=0;pointerEvents=1;sketch=1;curveFitting=1;jiggle=2;" vertex="1" parent="6">
                    <mxGeometry x="120" width="120" height="42" as="geometry">
                        <mxRectangle width="120" height="42" as="alternateBounds"/>
                    </mxGeometry>
                </mxCell>
                <mxCell id="9" value="" style="shape=tableRow;horizontal=0;startSize=0;swimlaneHead=0;swimlaneBody=0;strokeColor=inherit;top=0;left=0;bottom=0;right=0;collapsible=0;dropTarget=0;fillColor=none;points=[[0,0.5],[1,0.5]];portConstraint=eastwest;sketch=1;curveFitting=1;jiggle=2;" vertex="1" parent="2">
                    <mxGeometry y="116" width="240" height="44" as="geometry"/>
                </mxCell>
                <mxCell id="10" value="marca" style="shape=partialRectangle;html=1;whiteSpace=wrap;connectable=0;strokeColor=#6c8ebf;overflow=hidden;fillColor=#dae8fc;top=0;left=0;bottom=0;right=0;pointerEvents=1;sketch=1;curveFitting=1;jiggle=2;" vertex="1" parent="9">
                    <mxGeometry width="120" height="44" as="geometry">
                        <mxRectangle width="120" height="44" as="alternateBounds"/>
                    </mxGeometry>
                </mxCell>
                <mxCell id="11" value="&lt;div style=&quot;color: rgb(36, 41, 46); background-color: rgb(255, 255, 255); font-family: Consolas, &amp;quot;Courier New&amp;quot;, monospace; font-size: 14px; line-height: 19px; white-space: pre;&quot;&gt;&lt;span style=&quot;color: #d73a49;&quot;&gt;VARCHAR&lt;/span&gt;&lt;span style=&quot;color: #000000;&quot;&gt; (&lt;/span&gt;&lt;span style=&quot;color: #005cc5;&quot;&gt;50&lt;/span&gt;&lt;span style=&quot;color: #000000;&quot;&gt;)&lt;/span&gt;&lt;/div&gt;" style="shape=partialRectangle;html=1;whiteSpace=wrap;connectable=0;strokeColor=#6c8ebf;overflow=hidden;fillColor=#dae8fc;top=0;left=0;bottom=0;right=0;pointerEvents=1;sketch=1;curveFitting=1;jiggle=2;" vertex="1" parent="9">
                    <mxGeometry x="120" width="120" height="44" as="geometry">
                        <mxRectangle width="120" height="44" as="alternateBounds"/>
                    </mxGeometry>
                </mxCell>
                <mxCell id="12" value="" style="shape=tableRow;horizontal=0;startSize=0;swimlaneHead=0;swimlaneBody=0;strokeColor=inherit;top=0;left=0;bottom=0;right=0;collapsible=0;dropTarget=0;fillColor=none;points=[[0,0.5],[1,0.5]];portConstraint=eastwest;sketch=1;curveFitting=1;jiggle=2;" vertex="1" parent="2">
                    <mxGeometry y="160" width="240" height="44" as="geometry"/>
                </mxCell>
                <mxCell id="13" value="preco" style="shape=partialRectangle;html=1;whiteSpace=wrap;connectable=0;strokeColor=#6c8ebf;overflow=hidden;fillColor=#dae8fc;top=0;left=0;bottom=0;right=0;pointerEvents=1;sketch=1;curveFitting=1;jiggle=2;" vertex="1" parent="12">
                    <mxGeometry width="120" height="44" as="geometry">
                        <mxRectangle width="120" height="44" as="alternateBounds"/>
                    </mxGeometry>
                </mxCell>
                <mxCell id="14" value="&lt;div style=&quot;color: rgb(36, 41, 46); background-color: rgb(255, 255, 255); font-family: Consolas, &amp;quot;Courier New&amp;quot;, monospace; font-size: 14px; line-height: 19px; white-space: pre;&quot;&gt;&lt;span style=&quot;color: #d73a49;&quot;&gt;DECIMAL&lt;/span&gt;&lt;span style=&quot;color: #000000;&quot;&gt; (&lt;/span&gt;&lt;span style=&quot;color: #005cc5;&quot;&gt;10&lt;/span&gt;&lt;span style=&quot;color: #000000;&quot;&gt;,&lt;/span&gt;&lt;span style=&quot;color: #005cc5;&quot;&gt;2&lt;/span&gt;&lt;span style=&quot;color: #000000;&quot;&gt;)&lt;/span&gt;&lt;/div&gt;" style="shape=partialRectangle;html=1;whiteSpace=wrap;connectable=0;strokeColor=#6c8ebf;overflow=hidden;fillColor=#dae8fc;top=0;left=0;bottom=0;right=0;pointerEvents=1;sketch=1;curveFitting=1;jiggle=2;" vertex="1" parent="12">
                    <mxGeometry x="120" width="120" height="44" as="geometry">
                        <mxRectangle width="120" height="44" as="alternateBounds"/>
                    </mxGeometry>
                </mxCell>
                <mxCell id="15" value="" style="shape=tableRow;horizontal=0;startSize=0;swimlaneHead=0;swimlaneBody=0;strokeColor=inherit;top=0;left=0;bottom=0;right=0;collapsible=0;dropTarget=0;fillColor=none;points=[[0,0.5],[1,0.5]];portConstraint=eastwest;sketch=1;curveFitting=1;jiggle=2;" vertex="1" parent="2">
                    <mxGeometry y="204" width="240" height="42" as="geometry"/>
                </mxCell>
                <mxCell id="16" value="categoria" style="shape=partialRectangle;html=1;whiteSpace=wrap;connectable=0;strokeColor=#6c8ebf;overflow=hidden;fillColor=#dae8fc;top=0;left=0;bottom=0;right=0;pointerEvents=1;sketch=1;curveFitting=1;jiggle=2;" vertex="1" parent="15">
                    <mxGeometry width="120" height="42" as="geometry">
                        <mxRectangle width="120" height="42" as="alternateBounds"/>
                    </mxGeometry>
                </mxCell>
                <mxCell id="17" value="&lt;div style=&quot;color: rgb(36, 41, 46); background-color: rgb(255, 255, 255); font-family: Consolas, &amp;quot;Courier New&amp;quot;, monospace; font-size: 14px; line-height: 19px; white-space: pre;&quot;&gt;&lt;span style=&quot;color: #d73a49;&quot;&gt;VARCHAR&lt;/span&gt;&lt;span style=&quot;color: #000000;&quot;&gt; (&lt;/span&gt;&lt;span style=&quot;color: #005cc5;&quot;&gt;30&lt;/span&gt;&lt;span style=&quot;color: #000000;&quot;&gt;)&lt;/span&gt;&lt;/div&gt;" style="shape=partialRectangle;html=1;whiteSpace=wrap;connectable=0;strokeColor=#6c8ebf;overflow=hidden;fillColor=#dae8fc;top=0;left=0;bottom=0;right=0;pointerEvents=1;sketch=1;curveFitting=1;jiggle=2;" vertex="1" parent="15">
                    <mxGeometry x="120" width="120" height="42" as="geometry">
                        <mxRectangle width="120" height="42" as="alternateBounds"/>
                    </mxGeometry>
                </mxCell>
                <mxCell id="18" value="" style="shape=tableRow;horizontal=0;startSize=0;swimlaneHead=0;swimlaneBody=0;strokeColor=inherit;top=0;left=0;bottom=0;right=0;collapsible=0;dropTarget=0;fillColor=none;points=[[0,0.5],[1,0.5]];portConstraint=eastwest;sketch=1;curveFitting=1;jiggle=2;" vertex="1" parent="2">
                    <mxGeometry y="246" width="240" height="44" as="geometry"/>
                </mxCell>
                <mxCell id="19" value="estoque" style="shape=partialRectangle;html=1;whiteSpace=wrap;connectable=0;strokeColor=#6c8ebf;overflow=hidden;fillColor=#dae8fc;top=0;left=0;bottom=0;right=0;pointerEvents=1;sketch=1;curveFitting=1;jiggle=2;" vertex="1" parent="18">
                    <mxGeometry width="120" height="44" as="geometry">
                        <mxRectangle width="120" height="44" as="alternateBounds"/>
                    </mxGeometry>
                </mxCell>
                <mxCell id="20" value="INT DEFAULT 0" style="shape=partialRectangle;html=1;whiteSpace=wrap;connectable=0;strokeColor=#6c8ebf;overflow=hidden;fillColor=#dae8fc;top=0;left=0;bottom=0;right=0;pointerEvents=1;sketch=1;curveFitting=1;jiggle=2;" vertex="1" parent="18">
                    <mxGeometry x="120" width="120" height="44" as="geometry">
                        <mxRectangle width="120" height="44" as="alternateBounds"/>
                    </mxGeometry>
                </mxCell>
            </root>
        </mxGraphModel>
    </diagram>
</mxfile>